<?xml version="1.0" encoding="UTF-8"?>
<svg width="256px" height="256px" viewBox="0 0 256 256" xmlns="http://www.w3.org/2000/svg" xmlns:xlink="http://www.w3.org/1999/xlink" version="1.1">
 <!-- Generated by Pixelmator Pro 2.0.6 -->
 <g id="layer1">
  <path id="Ellipse" d="M256 128 C256 57.308 198.692 0 128 0 57.308 0 0 57.308 0 128 0 198.692 57.308 256 128 256 198.692 256 256 198.692 256 128 Z" fill="#97b9ef" fill-opacity="1" stroke="none"/>
  <g id="g8150">
   <path id="path8152" d="M134.33 53.145 C142.773 53.793 150.155 47.473 150.828 39.081 151.502 30.638 145.208 23.256 136.764 22.583 128.321 21.935 120.913 28.203 120.266 36.647 119.618 45.09 125.912 52.498 134.33 53.145" fill="#ffffff" fill-opacity="1" stroke="none"/>
  </g>
  <g id="g8154">
   <path id="path8156" d="M121.354 59.418 C124.358 57.346 128.088 55.921 132.103 56.232 137.36 56.698 141.712 59.936 144.302 63.925 L159.79 94.565 180.873 109.095 C182.686 110.468 183.774 112.747 183.593 115.156 183.308 118.963 179.967 121.786 176.133 121.475 174.994 121.449 174.087 120.983 172.974 120.465 L149.948 104.64 C149.249 104.044 148.705 103.371 148.239 102.568 L142.411 91.094 135.521 121.683 162.717 153.825 C163.313 154.835 163.727 155.949 163.986 157.088 L171.316 195.913 C171.29 196.768 171.419 197.312 171.368 198.037 170.901 203.735 165.903 207.983 160.179 207.543 155.465 207.18 151.942 203.632 150.829 199.332 L143.887 162.968 121.846 138.777 116.666 162.372 C116.511 163.486 115.06 165.791 114.594 166.775 L93.433 202.466 C91.284 205.755 87.761 207.827 83.695 207.543 77.971 207.076 73.697 202.078 74.163 196.354 74.293 194.748 74.966 193.064 75.536 191.899 L95.272 158.824 111.667 85.966 100.944 94.668 95.272 120.621 C94.521 123.91 91.491 126.655 87.891 126.345 84.109 126.034 81.234 122.744 81.519 118.911 L81.674 118.005 88.434 87.753 C88.797 86.38 89.548 85.267 90.584 84.412 Z" fill="#ffffff" fill-opacity="1" stroke="none"/>
  </g>
 </g>
</svg>
